# xmcd CD database file
#
# Track frame offsets:
#	150
#	20151
#	41069
#	61967
#	78086
#	99657
#	123426
#	144980
#	164029
#	183254
#	206002
#	220074
#	236753
#	253324
#	271896
#	287551
#	310111
#	334825
#
# Disc length: 4664 seconds
#
# Revision: 0
# Processed by: cddbd v1.5.2PL0 Copyright (c) Steve Scherf et al.
# Submitted via: CDex 1.70beta2
#
DISCID=0e123612
DTITLE=Various Artist - Nick The Nightfly Buona Vita CD1
DYEAR=2009
DGENRE=New Age
TTITLE0=Richard Elliott - Move On Up
TTITLE1=Nate James - Runaway
TTITLE2=Club Des Belugas - What Is Jazz
TTITLE3=Indigo Sun - You Don't Fool Me
TTITLE4=Nat King Cole Ft Bebel Gilberto - Brazilian Love Song
TTITLE5=Andy Caldwell Ft Gina Rene - Quiet Nights In Rio
TTITLE6=Nicola Conte - Like Leaves In The Wind
TTITLE7=Matt Bianco - Hifi Bossanova
TTITLE8=Pochill - Violent Theme
TTITLE9=Aaron Tesser and The New Jazz Affair - Everlasting Rose
TTITLE10=Rosalia De Sousa - Carolina Carol Bela
TTITLE11=Colman Brothers - Sem Amor
TTITLE12=Woodstock Flowers Ft Vaceo - Sad Day
TTITLE13=Robin Thicke - Sidestep
TTITLE14=Lorenzo Tucci - The Sky
TTITLE15=Royksopp - Vision One
TTITLE16=Club Des Belugas - Phantastic Philadelphia
TTITLE17=James Brown and Dee Felice Trio - Sunny
EXTD=YEAR: 2009
EXTT0=
EXTT1=
EXTT2=
EXTT3=
EXTT4=
EXTT5=
EXTT6=
EXTT7=
EXTT8=
EXTT9=
EXTT10=
EXTT11=
EXTT12=
EXTT13=
EXTT14=
EXTT15=
EXTT16=
EXTT17=
PLAYORDER=
